<svg xmlns="http://www.w3.org/2000/svg" xmlns:xlink="http://www.w3.org/1999/xlink" width="1200" zoomAndPan="magnify" viewBox="0 0 900 112.499997" height="150" preserveAspectRatio="xMidYMid meet" version="1.0"><defs><g/><clipPath id="620347f28a"><path d="M 204.003906 0 L 239.84375 0 L 239.84375 44.800781 L 204.003906 44.800781 Z M 204.003906 0 " clip-rule="nonzero"/></clipPath><clipPath id="63ed0dac79"><path d="M 632.832031 73.515625 L 668.671875 73.515625 L 668.671875 112.003906 L 632.832031 112.003906 Z M 632.832031 73.515625 " clip-rule="nonzero"/></clipPath></defs><g clip-path="url(#620347f28a)"><path fill="#2563eb" d="M 220.753906 44.699219 L 220.496094 44.699219 C 220.496094 29.230469 218 28.105469 203.96875 28.105469 L 203.96875 27.84375 C 218 27.84375 220.496094 26.722656 220.496094 11.253906 L 220.753906 11.253906 C 220.753906 26.722656 223.25 27.84375 237.277344 27.84375 L 237.277344 28.105469 C 223.25 28.105469 220.753906 29.230469 220.753906 44.699219 Z M 236.125 23.640625 L 236.066406 23.640625 C 236.066406 20.179688 235.507812 19.925781 232.367188 19.925781 L 232.367188 19.867188 C 235.507812 19.867188 236.066406 19.613281 236.066406 16.152344 L 236.125 16.152344 C 236.125 19.613281 236.683594 19.867188 239.824219 19.867188 L 239.824219 19.925781 C 236.683594 19.925781 236.125 20.179688 236.125 23.640625 Z M 228.96875 15.035156 L 228.855469 15.035156 C 228.855469 8.160156 227.746094 7.660156 221.511719 7.660156 L 221.511719 7.542969 C 227.746094 7.542969 228.855469 7.046875 228.855469 0.171875 L 228.96875 0.171875 C 228.96875 7.046875 230.078125 7.542969 236.3125 7.542969 L 236.3125 7.660156 C 230.078125 7.660156 228.96875 8.160156 228.96875 15.035156 " fill-opacity="1" fill-rule="evenodd"/></g><g clip-path="url(#63ed0dac79)"><path fill="#2563eb" d="M 649.582031 118.21875 L 649.324219 118.21875 C 649.324219 102.746094 646.828125 101.621094 632.796875 101.621094 L 632.796875 101.363281 C 646.828125 101.363281 649.324219 100.238281 649.324219 84.769531 L 649.582031 84.769531 C 649.582031 100.238281 652.078125 101.363281 666.105469 101.363281 L 666.105469 101.621094 C 652.078125 101.621094 649.582031 102.746094 649.582031 118.21875 Z M 664.953125 97.160156 L 664.898438 97.160156 C 664.898438 93.695312 664.335938 93.441406 661.195312 93.441406 L 661.195312 93.386719 C 664.335938 93.386719 664.898438 93.132812 664.898438 89.667969 L 664.953125 89.667969 C 664.953125 93.132812 665.511719 93.386719 668.652344 93.386719 L 668.652344 93.441406 C 665.511719 93.441406 664.953125 93.695312 664.953125 97.160156 Z M 657.796875 88.550781 L 657.683594 88.550781 C 657.683594 81.675781 656.574219 81.179688 650.339844 81.179688 L 650.339844 81.0625 C 656.574219 81.0625 657.683594 80.5625 657.683594 73.691406 L 657.796875 73.691406 C 657.796875 80.5625 658.910156 81.0625 665.140625 81.0625 L 665.140625 81.179688 C 658.910156 81.179688 657.796875 81.675781 657.796875 88.550781 " fill-opacity="1" fill-rule="evenodd"/></g><g fill="#2563eb" fill-opacity="1"><g transform="translate(333.058012, 79.894906)"><g><path d="M 22.4375 -23.875 C 24.625 -23.832031 26.597656 -23.28125 28.359375 -22.21875 C 30.128906 -21.164062 31.539062 -19.742188 32.59375 -17.953125 C 33.644531 -16.171875 34.171875 -14.203125 34.171875 -12.046875 C 34.171875 -9.859375 33.632812 -7.867188 32.5625 -6.078125 C 31.488281 -4.285156 30.054688 -2.859375 28.265625 -1.796875 C 26.472656 -0.734375 24.492188 -0.203125 22.328125 -0.203125 L 0.25 -0.1875 C 0.59375 -0.1875 0.867188 -0.375 1.078125 -0.75 C 1.296875 -1.125 1.457031 -1.597656 1.5625 -2.171875 C 1.675781 -2.753906 1.765625 -3.347656 1.828125 -3.953125 C 1.835938 -4.160156 1.847656 -4.359375 1.859375 -4.546875 L 1.859375 -39.65625 C 1.847656 -39.84375 1.835938 -40.035156 1.828125 -40.234375 C 1.765625 -40.847656 1.675781 -41.441406 1.5625 -42.015625 C 1.457031 -42.585938 1.296875 -43.0625 1.078125 -43.4375 C 0.867188 -43.820312 0.59375 -44.015625 0.25 -44.015625 L 6.40625 -44.015625 L 16.609375 -43.96875 L 18.421875 -43.96875 C 20.347656 -43.96875 22.101562 -43.5 23.6875 -42.5625 C 25.269531 -41.625 26.53125 -40.363281 27.46875 -38.78125 C 28.414062 -37.195312 28.890625 -35.445312 28.890625 -33.53125 C 28.890625 -31.363281 28.296875 -29.414062 27.109375 -27.6875 C 25.921875 -25.96875 24.363281 -24.695312 22.4375 -23.875 Z M 17.09375 -43.3125 L 7.734375 -43.3125 C 7.660156 -43.164062 7.59375 -43.003906 7.53125 -42.828125 C 7.300781 -42.097656 7.148438 -41.269531 7.078125 -40.34375 C 7.066406 -40.257812 7.054688 -40.125 7.046875 -39.9375 C 7.035156 -39.757812 7.023438 -39.585938 7.015625 -39.421875 C 7.015625 -39.253906 7.007812 -39.140625 7 -39.078125 L 7 -23.875 L 17.5625 -23.875 C 19.144531 -24.382812 20.507812 -25.21875 21.65625 -26.375 C 22.582031 -27.300781 23.304688 -28.375 23.828125 -29.59375 C 24.359375 -30.8125 24.625 -32.125 24.625 -33.53125 C 24.625 -35.09375 24.296875 -36.546875 23.640625 -37.890625 C 22.984375 -39.234375 22.09375 -40.375 20.96875 -41.3125 C 19.84375 -42.25 18.550781 -42.914062 17.09375 -43.3125 Z M 7.75 -0.875 L 20.4375 -0.875 C 22.125 -1.457031 23.59375 -2.375 24.84375 -3.625 C 25.894531 -4.675781 26.71875 -5.894531 27.3125 -7.28125 C 27.914062 -8.675781 28.21875 -10.171875 28.21875 -11.765625 C 28.21875 -13.753906 27.753906 -15.582031 26.828125 -17.25 C 25.898438 -18.914062 24.65625 -20.273438 23.09375 -21.328125 C 21.53125 -22.378906 19.765625 -23.003906 17.796875 -23.203125 L 7 -23.203125 C 7 -23.203125 7 -22.265625 7 -20.390625 C 7.007812 -18.523438 7.015625 -16.382812 7.015625 -13.96875 C 7.015625 -11.5625 7.015625 -9.4375 7.015625 -7.59375 C 7.015625 -5.75 7.019531 -4.753906 7.03125 -4.609375 C 7.039062 -4.359375 7.054688 -4.101562 7.078125 -3.84375 C 7.148438 -2.914062 7.300781 -2.09375 7.53125 -1.375 C 7.59375 -1.1875 7.664062 -1.019531 7.75 -0.875 Z M 7.75 -0.875 "/></g></g></g><g fill="#2563eb" fill-opacity="1"><g transform="translate(367.226899, 79.894906)"><g><path d="M 28.734375 -19.328125 C 29.984375 -15.492188 29.734375 -11.757812 27.984375 -8.125 C 26.148438 -4.53125 23.328125 -2.066406 19.515625 -0.734375 C 15.679688 0.515625 11.941406 0.265625 8.296875 -1.484375 C 4.710938 -3.316406 2.253906 -6.132812 0.921875 -9.9375 C -0.328125 -13.78125 -0.078125 -17.519531 1.671875 -21.15625 C 3.492188 -24.75 6.3125 -27.210938 10.125 -28.546875 C 13.96875 -29.796875 17.707031 -29.546875 21.34375 -27.796875 C 24.9375 -25.960938 27.398438 -23.140625 28.734375 -19.328125 Z M 20.546875 -1.859375 C 22.390625 -3.085938 23.550781 -5.128906 24.03125 -7.984375 C 24.519531 -10.847656 24.207031 -14.003906 23.09375 -17.453125 C 21.90625 -20.796875 20.28125 -23.457031 18.21875 -25.4375 C 16.15625 -27.414062 14.03125 -28.382812 11.84375 -28.34375 C 11.34375 -28.226562 10.84375 -28.085938 10.34375 -27.921875 C 9.882812 -27.765625 9.441406 -27.585938 9.015625 -27.390625 C 7.234375 -26.117188 6.113281 -24.0625 5.65625 -21.21875 C 5.207031 -18.382812 5.535156 -15.273438 6.640625 -11.890625 C 7.835938 -8.460938 9.503906 -5.753906 11.640625 -3.765625 C 13.773438 -1.785156 15.945312 -0.875 18.15625 -1.03125 C 18.550781 -1.125 18.9375 -1.238281 19.3125 -1.375 C 19.738281 -1.519531 20.148438 -1.679688 20.546875 -1.859375 Z M 20.546875 -1.859375 "/></g></g></g><g fill="#2563eb" fill-opacity="1"><g transform="translate(396.817658, 79.894906)"><g><path d="M 28.734375 -19.328125 C 29.984375 -15.492188 29.734375 -11.757812 27.984375 -8.125 C 26.148438 -4.53125 23.328125 -2.066406 19.515625 -0.734375 C 15.679688 0.515625 11.941406 0.265625 8.296875 -1.484375 C 4.710938 -3.316406 2.253906 -6.132812 0.921875 -9.9375 C -0.328125 -13.78125 -0.078125 -17.519531 1.671875 -21.15625 C 3.492188 -24.75 6.3125 -27.210938 10.125 -28.546875 C 13.96875 -29.796875 17.707031 -29.546875 21.34375 -27.796875 C 24.9375 -25.960938 27.398438 -23.140625 28.734375 -19.328125 Z M 20.546875 -1.859375 C 22.390625 -3.085938 23.550781 -5.128906 24.03125 -7.984375 C 24.519531 -10.847656 24.207031 -14.003906 23.09375 -17.453125 C 21.90625 -20.796875 20.28125 -23.457031 18.21875 -25.4375 C 16.15625 -27.414062 14.03125 -28.382812 11.84375 -28.34375 C 11.34375 -28.226562 10.84375 -28.085938 10.34375 -27.921875 C 9.882812 -27.765625 9.441406 -27.585938 9.015625 -27.390625 C 7.234375 -26.117188 6.113281 -24.0625 5.65625 -21.21875 C 5.207031 -18.382812 5.535156 -15.273438 6.640625 -11.890625 C 7.835938 -8.460938 9.503906 -5.753906 11.640625 -3.765625 C 13.773438 -1.785156 15.945312 -0.875 18.15625 -1.03125 C 18.550781 -1.125 18.9375 -1.238281 19.3125 -1.375 C 19.738281 -1.519531 20.148438 -1.679688 20.546875 -1.859375 Z M 20.546875 -1.859375 "/></g></g></g><g fill="#2563eb" fill-opacity="1"><g transform="translate(426.408416, 79.894906)"><g><path d="M 8.359375 -16.359375 C 7.816406 -15.734375 7.367188 -15.195312 7.015625 -14.75 L 7.015625 -4.890625 C 7.035156 -4.203125 7.09375 -3.484375 7.1875 -2.734375 C 7.28125 -1.984375 7.441406 -1.335938 7.671875 -0.796875 C 7.898438 -0.253906 8.226562 0.015625 8.65625 0.015625 L 0.25 0.015625 C 0.625 0.015625 0.921875 -0.207031 1.140625 -0.65625 C 1.367188 -1.113281 1.539062 -1.671875 1.65625 -2.328125 C 1.769531 -2.992188 1.835938 -3.660156 1.859375 -4.328125 L 1.859375 -34.203125 C 1.859375 -35.023438 1.835938 -35.738281 1.796875 -36.34375 C 1.753906 -36.957031 1.695312 -37.476562 1.625 -37.90625 C 1.5625 -38.332031 1.488281 -38.6875 1.40625 -38.96875 C 1.320312 -39.25 1.234375 -39.472656 1.140625 -39.640625 C 1.054688 -39.804688 0.96875 -39.925781 0.875 -40 C 0.789062 -40.070312 0.710938 -40.117188 0.640625 -40.140625 C 0.566406 -40.160156 0.507812 -40.164062 0.46875 -40.15625 C 0.425781 -40.144531 0.398438 -40.140625 0.390625 -40.140625 L 7.015625 -43.796875 L 7.015625 -15.8125 C 7.273438 -16.132812 7.5625 -16.476562 7.875 -16.84375 C 9.03125 -18.1875 10.210938 -19.460938 11.421875 -20.671875 C 13.515625 -22.734375 15.566406 -24.441406 17.578125 -25.796875 C 20.109375 -27.515625 22.503906 -28.613281 24.765625 -29.09375 C 25.628906 -29.28125 26.472656 -29.375 27.296875 -29.375 L 27.296875 -24.078125 C 27.296875 -24.078125 26.867188 -24.148438 26.015625 -24.296875 C 25.160156 -24.453125 24.050781 -24.53125 22.6875 -24.53125 C 21.332031 -24.539062 19.867188 -24.359375 18.296875 -23.984375 C 16.734375 -23.609375 15.21875 -22.925781 13.75 -21.9375 C 13.082031 -21.332031 12.460938 -20.75 11.890625 -20.1875 C 11.890625 -20.1875 11.882812 -20.1875 11.875 -20.1875 C 11.875 -20.1875 11.875 -20.179688 11.875 -20.171875 L 28.90625 0.015625 L 22.15625 0.015625 Z M 8.359375 -16.359375 "/></g></g></g><g fill="#2563eb" fill-opacity="1"><g transform="translate(455.31412, 79.894906)"><g><path d="M 45.171875 -43.890625 C 44.785156 -43.890625 44.359375 -43.660156 43.890625 -43.203125 C 43.429688 -42.742188 42.972656 -42.179688 42.515625 -41.515625 C 42.066406 -40.847656 41.648438 -40.179688 41.265625 -39.515625 C 40.890625 -38.847656 40.585938 -38.285156 40.359375 -37.828125 C 40.128906 -37.378906 40.015625 -37.148438 40.015625 -37.140625 L 22.984375 -0.0625 L 22.09375 -0.0625 L 4.609375 -38.140625 C 4.378906 -38.628906 4.085938 -39.195312 3.734375 -39.84375 C 3.390625 -40.488281 3.015625 -41.117188 2.609375 -41.734375 C 2.210938 -42.347656 1.804688 -42.859375 1.390625 -43.265625 C 0.984375 -43.679688 0.601562 -43.890625 0.25 -43.890625 L 9.734375 -43.890625 C 9.359375 -43.890625 9.148438 -43.65625 9.109375 -43.1875 C 9.066406 -42.726562 9.117188 -42.160156 9.265625 -41.484375 C 9.421875 -40.816406 9.613281 -40.144531 9.84375 -39.46875 C 10.082031 -38.800781 10.296875 -38.238281 10.484375 -37.78125 C 10.671875 -37.332031 10.769531 -37.097656 10.78125 -37.078125 L 25.015625 -6.0625 L 39.6875 -38.046875 C 39.882812 -38.523438 40.09375 -39.085938 40.3125 -39.734375 C 40.53125 -40.390625 40.703125 -41.035156 40.828125 -41.671875 C 40.960938 -42.304688 41.003906 -42.832031 40.953125 -43.25 C 40.898438 -43.675781 40.691406 -43.890625 40.328125 -43.890625 Z M 45.171875 -43.890625 "/></g></g></g><g fill="#2563eb" fill-opacity="1"><g transform="translate(500.493902, 79.894906)"><g><path d="M 24.421875 -2.609375 C 24.367188 -2.503906 24.28125 -2.335938 24.15625 -2.109375 C 24.03125 -1.878906 23.894531 -1.628906 23.75 -1.359375 C 23.570312 -1.046875 23.414062 -0.757812 23.28125 -0.5 C 23.144531 -0.238281 23.046875 -0.0625 22.984375 0.03125 C 22.984375 0.03125 22.800781 0.0351562 22.4375 0.046875 C 22.070312 0.0664062 21.625 0.0664062 21.09375 0.046875 C 20.5625 0.0234375 20.046875 -0.03125 19.546875 -0.125 C 19.046875 -0.21875 18.648438 -0.375 18.359375 -0.59375 C 17.847656 -1.050781 17.546875 -1.628906 17.453125 -2.328125 C 17.359375 -3.023438 17.332031 -3.722656 17.375 -4.421875 C 17.382812 -4.691406 17.390625 -4.941406 17.390625 -5.171875 C 16.710938 -3.796875 15.738281 -2.675781 14.46875 -1.8125 C 13.195312 -0.945312 11.804688 -0.398438 10.296875 -0.171875 C 8.910156 0.0546875 7.53125 0.0195312 6.15625 -0.28125 C 4.78125 -0.582031 3.546875 -1.1875 2.453125 -2.09375 C 1.328125 -3.070312 0.570312 -4.265625 0.1875 -5.671875 C -0.195312 -7.078125 -0.09375 -8.476562 0.5 -9.875 C 1.164062 -11.226562 2.144531 -12.296875 3.4375 -13.078125 C 4.726562 -13.859375 6.070312 -14.476562 7.46875 -14.9375 C 9.007812 -15.476562 10.546875 -16.019531 12.078125 -16.5625 C 13.847656 -17.175781 15.613281 -17.789062 17.375 -18.40625 C 17.375 -19.84375 17.375 -21.273438 17.375 -22.703125 C 17.375 -22.992188 17.378906 -23.289062 17.390625 -23.59375 C 17.453125 -24.375 17.425781 -25.132812 17.3125 -25.875 C 17.113281 -26.789062 16.679688 -27.414062 16.015625 -27.75 C 15.359375 -28.09375 14.609375 -28.289062 13.765625 -28.34375 C 12.398438 -28.457031 11.003906 -28.320312 9.578125 -27.9375 C 8.160156 -27.5625 6.976562 -26.84375 6.03125 -25.78125 C 5.914062 -26.007812 5.804688 -26.238281 5.703125 -26.46875 C 5.285156 -27.289062 4.878906 -28.113281 4.484375 -28.9375 L 4.4375 -29.015625 C 5.113281 -29.066406 5.789062 -29.117188 6.46875 -29.171875 C 8.3125 -29.347656 10.171875 -29.414062 12.046875 -29.375 C 13.921875 -29.332031 15.703125 -28.941406 17.390625 -28.203125 C 18.929688 -27.515625 20.160156 -26.503906 21.078125 -25.171875 C 22.003906 -23.835938 22.5 -22.328125 22.5625 -20.640625 C 22.582031 -19.222656 22.585938 -17.242188 22.578125 -14.703125 C 22.578125 -12.160156 22.570312 -9.914062 22.5625 -7.96875 C 22.5625 -6.820312 22.5625 -6.0625 22.5625 -5.6875 C 22.5625 -5.613281 22.5625 -5.550781 22.5625 -5.5 C 22.550781 -5.019531 22.570312 -4.523438 22.625 -4.015625 C 22.675781 -3.515625 22.835938 -3.113281 23.109375 -2.8125 C 23.378906 -2.507812 23.816406 -2.441406 24.421875 -2.609375 Z M 17.140625 -6.1875 C 17.222656 -6.375 17.300781 -6.5625 17.375 -6.75 L 17.375 -17.703125 C 16.914062 -17.554688 16.457031 -17.394531 16 -17.21875 C 15 -16.863281 14 -16.507812 13 -16.15625 C 12.570312 -16.007812 12.144531 -15.867188 11.71875 -15.734375 C 10.820312 -15.492188 9.960938 -15.175781 9.140625 -14.78125 C 8.179688 -14.257812 7.410156 -13.484375 6.828125 -12.453125 C 6.242188 -11.429688 5.890625 -10.394531 5.765625 -9.34375 C 5.578125 -7.226562 6.097656 -5.304688 7.328125 -3.578125 C 7.941406 -2.742188 8.691406 -2.054688 9.578125 -1.515625 C 10.097656 -1.234375 10.632812 -1.109375 11.1875 -1.140625 C 11.75 -1.179688 12.289062 -1.328125 12.8125 -1.578125 C 13.820312 -2.023438 14.679688 -2.648438 15.390625 -3.453125 C 16.109375 -4.265625 16.691406 -5.175781 17.140625 -6.1875 Z M 17.140625 -6.1875 "/></g></g></g><g fill="#2563eb" fill-opacity="1"><g transform="translate(524.921717, 79.894906)"><g><path d="M 14.78125 -28.15625 C 16.15625 -28.789062 17.550781 -29.101562 18.96875 -29.09375 L 17.421875 -24.609375 C 17.421875 -24.609375 17.160156 -24.65625 16.640625 -24.75 C 16.128906 -24.851562 15.476562 -24.914062 14.6875 -24.9375 C 13.894531 -24.957031 13.070312 -24.835938 12.21875 -24.578125 C 11.363281 -24.328125 10.582031 -23.867188 9.875 -23.203125 C 9.175781 -22.265625 8.691406 -21.5625 8.421875 -21.09375 C 8.421875 -21.09375 8.414062 -21.082031 8.40625 -21.0625 C 8.375 -20.988281 8.273438 -20.796875 8.109375 -20.484375 C 7.941406 -20.179688 7.753906 -19.835938 7.546875 -19.453125 C 7.347656 -19.078125 7.171875 -18.75 7.015625 -18.46875 L 7.015625 -4.890625 C 7.035156 -4.203125 7.09375 -3.484375 7.1875 -2.734375 C 7.28125 -1.984375 7.441406 -1.335938 7.671875 -0.796875 C 7.898438 -0.253906 8.226562 0.015625 8.65625 0.015625 L 0.25 0.015625 C 0.625 0.015625 0.921875 -0.207031 1.140625 -0.65625 C 1.367188 -1.113281 1.539062 -1.671875 1.65625 -2.328125 C 1.769531 -2.992188 1.835938 -3.660156 1.859375 -4.328125 L 1.859375 -19.71875 C 1.859375 -20.53125 1.835938 -21.238281 1.796875 -21.84375 C 1.753906 -22.445312 1.695312 -22.960938 1.625 -23.390625 C 1.5625 -23.828125 1.488281 -24.1875 1.40625 -24.46875 C 1.320312 -24.75 1.234375 -24.96875 1.140625 -25.125 C 1.054688 -25.289062 0.96875 -25.410156 0.875 -25.484375 C 0.789062 -25.566406 0.710938 -25.617188 0.640625 -25.640625 C 0.566406 -25.660156 0.507812 -25.664062 0.46875 -25.65625 C 0.425781 -25.644531 0.398438 -25.632812 0.390625 -25.625 L 1.859375 -26.453125 L 7.015625 -29.3125 L 7.015625 -19.90625 C 7.253906 -20.320312 7.457031 -20.6875 7.625 -21 C 7.65625 -21.070312 7.691406 -21.144531 7.734375 -21.21875 C 7.773438 -21.300781 7.8125 -21.367188 7.84375 -21.421875 C 7.882812 -21.472656 7.90625 -21.503906 7.90625 -21.515625 C 8.125 -21.898438 8.457031 -22.410156 8.90625 -23.046875 C 9.363281 -23.679688 9.929688 -24.351562 10.609375 -25.0625 C 11.921875 -26.4375 13.3125 -27.46875 14.78125 -28.15625 Z M 14.78125 -28.15625 "/></g></g></g><g fill="#2563eb" fill-opacity="1"><g transform="translate(543.885869, 79.894906)"><g><path d="M 21.9375 -11.59375 C 22.6875 -10.257812 23.007812 -8.875 22.90625 -7.4375 C 22.800781 -6 22.289062 -4.664062 21.375 -3.4375 C 20.382812 -2.207031 19.171875 -1.304688 17.734375 -0.734375 C 16.304688 -0.171875 14.8125 0.0820312 13.25 0.03125 C 10.851562 -0.113281 8.609375 -0.769531 6.515625 -1.9375 C 5.929688 -2.25 5.367188 -2.585938 4.828125 -2.953125 C 4.828125 -2.953125 4.820312 -2.953125 4.8125 -2.953125 C 4.6875 -3.046875 4.554688 -3.128906 4.421875 -3.203125 C 3.753906 -3.660156 3.085938 -4.125 2.421875 -4.59375 L 0.75 -5.84375 L 3.046875 -8.140625 C 3.410156 -6.671875 4.113281 -5.367188 5.15625 -4.234375 C 6.195312 -3.109375 7.441406 -2.328125 8.890625 -1.890625 C 9.648438 -1.691406 10.410156 -1.679688 11.171875 -1.859375 C 12.703125 -2.140625 14.035156 -2.800781 15.171875 -3.84375 C 16.171875 -4.820312 16.75 -5.9375 16.90625 -7.1875 C 17.070312 -8.4375 16.773438 -9.648438 16.015625 -10.828125 C 15.160156 -12.035156 14.085938 -12.9375 12.796875 -13.53125 C 11.515625 -14.132812 10.175781 -14.628906 8.78125 -15.015625 L 8.78125 -15 C 8 -15.25 7.21875 -15.515625 6.4375 -15.796875 C 5.664062 -16.078125 4.921875 -16.425781 4.203125 -16.84375 C 3.960938 -16.925781 3.722656 -17.054688 3.484375 -17.234375 C 3.253906 -17.421875 3.039062 -17.601562 2.84375 -17.78125 C 2.8125 -17.8125 2.769531 -17.84375 2.71875 -17.875 C 2.207031 -18.3125 1.765625 -18.8125 1.390625 -19.375 C 0.628906 -20.5625 0.332031 -21.847656 0.5 -23.234375 C 0.738281 -24.773438 1.398438 -26.054688 2.484375 -27.078125 C 3.566406 -28.097656 4.847656 -28.769531 6.328125 -29.09375 C 7.628906 -29.332031 8.945312 -29.429688 10.28125 -29.390625 C 11.75 -29.398438 13.171875 -29.164062 14.546875 -28.6875 C 15.722656 -28.238281 16.816406 -27.65625 17.828125 -26.9375 C 18.597656 -26.382812 19.289062 -25.757812 19.90625 -25.0625 L 18.34375 -23.6875 C 17.789062 -24.988281 16.976562 -26.101562 15.90625 -27.03125 C 14.832031 -28.019531 13.570312 -28.566406 12.125 -28.671875 C 12.070312 -28.679688 12.019531 -28.6875 11.96875 -28.6875 C 11.269531 -28.75 10.582031 -28.71875 9.90625 -28.59375 C 8.78125 -28.3125 7.90625 -27.691406 7.28125 -26.734375 C 6.65625 -25.617188 6.390625 -24.414062 6.484375 -23.125 C 6.597656 -21.800781 7.144531 -20.6875 8.125 -19.78125 C 8.882812 -19.070312 9.726562 -18.523438 10.65625 -18.140625 C 11.59375 -17.753906 12.550781 -17.414062 13.53125 -17.125 C 14.09375 -16.957031 14.644531 -16.78125 15.1875 -16.59375 C 16.570312 -16.125 17.851562 -15.492188 19.03125 -14.703125 C 20.207031 -13.910156 21.175781 -12.875 21.9375 -11.59375 Z M 21.9375 -11.59375 "/></g></g></g></svg>